<svg width="21" height="9" viewBox="0 0 21 9" fill="none" xmlns="http://www.w3.org/2000/svg">
<path d="M2.72301 9L0.225852 0.272727H2.24148L3.68608 6.33665H3.75852L5.35227 0.272727H7.07812L8.66761 6.34943H8.74432L10.1889 0.272727H12.2045L9.70739 9H7.90909L6.24716 3.29403H6.17898L4.52131 9H2.72301ZM13.1921 9V0.272727H16.6353C17.2944 0.272727 17.8569 0.390625 18.3228 0.62642C18.7915 0.859375 19.1481 1.19034 19.3924 1.61932C19.6396 2.04545 19.7631 2.54687 19.7631 3.12358C19.7631 3.70312 19.6381 4.2017 19.3881 4.61932C19.1381 5.03409 18.7759 5.35227 18.3015 5.57386C17.8299 5.79545 17.2589 5.90625 16.5884 5.90625H14.283V4.4233H16.2901C16.6424 4.4233 16.935 4.375 17.168 4.27841C17.4009 4.18182 17.5742 4.03693 17.6879 3.84375C17.8043 3.65057 17.8626 3.41051 17.8626 3.12358C17.8626 2.83381 17.8043 2.58949 17.6879 2.39062C17.5742 2.19176 17.3995 2.04119 17.1637 1.93892C16.9308 1.83381 16.6367 1.78125 16.2816 1.78125H15.0373V9H13.1921ZM17.9052 5.02841L20.0742 9H18.0373L15.9151 5.02841H17.9052Z" fill="black"/>
</svg>
